<svg width="48" height="54" viewBox="0 0 48 54" fill="none" xmlns="http://www.w3.org/2000/svg">
<rect x="0.888916" width="46.6667" height="54" fill="#323238"/>
<path d="M36.0311 27.0822C36.0311 19.5802 30.7767 13.5 24.2934 13.5C17.8101 13.5 12.5557 19.5802 12.5557 27.0822C12.5557 33.8627 16.8473 39.4813 22.4594 40.5V31.0084H19.4791V27.0822H22.4594V24.0899C22.4594 20.6864 24.2109 18.8056 26.8931 18.8056C28.1769 18.8056 29.5204 19.0708 29.5204 19.0708V22.4133H28.0394C26.5813 22.4133 26.1274 23.4612 26.1274 24.5356V27.0822H29.3828L28.8624 31.0084H26.1274V40.5C31.7395 39.4813 36.0311 33.8627 36.0311 27.0822Z" fill="white"/>
</svg>
