<svg width="48" height="54" viewBox="0 0 48 54" fill="none" xmlns="http://www.w3.org/2000/svg">
<rect x="0.44458" width="46.6667" height="54" fill="#323238"/>
<g clip-path="url(#clip0_61385_216)">
<path d="M22.5374 40.4999C21.4612 40.4999 20.2041 40.4931 18.9636 40.411C17.1485 40.4582 15.3905 39.6752 14.0713 38.2319C12.8238 36.706 12.147 34.672 12.1881 32.572C12.1113 30.9486 12.1113 29.3072 12.1113 27.7199C12.1113 27.4799 12.1113 27.2399 12.1113 26.9999C12.1113 26.7599 12.1113 26.5199 12.1113 26.2799C12.1113 24.6925 12.1113 23.0511 12.1881 21.4289C12.1473 19.3286 12.824 17.2944 14.0713 15.7679C15.3905 14.3245 17.1485 13.5415 18.9636 13.5887C20.208 13.5066 21.4612 13.4999 22.5374 13.4999H25.0195C26.0958 13.4999 27.3529 13.5066 28.5944 13.5887C30.4092 13.5412 32.167 14.3243 33.4856 15.7679C34.733 17.2944 35.4097 19.3286 35.3688 21.4289C35.4447 23.0511 35.4447 24.6925 35.4447 26.281C35.4447 26.521 35.4447 26.761 35.4447 27.001C35.4447 27.241 35.4447 27.4806 35.4447 27.7199C35.4447 29.3072 35.4447 30.9486 35.3679 32.5731C35.409 34.6731 34.7322 36.7071 33.4847 38.233C32.166 39.6766 30.4082 40.4597 28.5934 40.4121C27.348 40.4942 26.0948 40.501 25.0186 40.501L22.5374 40.4999Z" fill="white"/>
<path d="M29.2283 21.1371C29.4582 21.3148 29.7285 21.4097 30.005 21.4097L30.006 21.4108C30.3767 21.4102 30.732 21.2394 30.994 20.9359C31.2559 20.6323 31.403 20.2209 31.403 19.792C31.403 19.472 31.321 19.1592 31.1674 18.8932C31.0138 18.6271 30.7955 18.4198 30.54 18.2973C30.2845 18.1749 30.0034 18.1429 29.7322 18.2053C29.461 18.2677 29.2119 18.4218 29.0164 18.648C28.8209 18.8743 28.6877 19.1625 28.6338 19.4763C28.5799 19.7902 28.6075 20.1154 28.7134 20.411C28.8192 20.7066 28.9984 20.9593 29.2283 21.1371Z" fill="#323238"/>
<path fill-rule="evenodd" clip-rule="evenodd" d="M23.7782 33.925C22.5945 33.9248 21.4375 33.5184 20.4534 32.7573C19.4693 31.9962 18.7023 30.9145 18.2495 29.649C17.7967 28.3835 17.6783 26.991 17.9093 25.6477C18.1404 24.3044 18.7104 23.0705 19.5475 22.102C20.3846 21.1336 21.451 20.4741 22.6119 20.207C23.7729 19.9398 24.9762 20.0771 26.0698 20.6013C27.1633 21.1255 28.098 22.0131 28.7556 23.152C29.4132 24.2909 29.7642 25.6298 29.7642 26.9995C29.7627 28.836 29.1315 30.5968 28.0092 31.8954C26.887 33.194 25.3653 33.9232 23.7782 33.925ZM23.7782 22.5001C23.009 22.5001 22.2571 22.764 21.6176 23.2585C20.9781 23.7529 20.4796 24.4557 20.1853 25.278C19.891 26.1003 19.8139 27.0051 19.964 27.878C20.1141 28.7509 20.4844 29.5527 21.0283 30.1821C21.5722 30.8114 22.2651 31.24 23.0195 31.4136C23.7739 31.5872 24.5558 31.4981 25.2664 31.1575C25.977 30.8169 26.5843 30.2402 27.0117 29.5001C27.439 28.7601 27.6671 27.8901 27.6671 27.0001C27.6671 25.8066 27.2573 24.662 26.528 23.8181C25.7987 22.9742 24.8096 22.5001 23.7782 22.5001Z" fill="#323238"/>
</g>
<defs>
<clipPath id="clip0_61385_216">
<rect width="23.3333" height="27" fill="white" transform="translate(12.1113 13.4999)"/>
</clipPath>
</defs>
</svg>
