<svg width="47" height="54" viewBox="0 0 47 54" fill="none" xmlns="http://www.w3.org/2000/svg">
<rect x="0.333252" width="46.6667" height="54" fill="#323238"/>
<g clip-path="url(#clip0_61385_205)">
<path d="M35.9993 18.951C35.1004 19.3904 34.1477 19.6802 33.1721 19.811C34.2009 19.1299 34.9708 18.0581 35.3381 16.7957C34.3724 17.4336 33.3145 17.8826 32.2109 18.1228C31.5367 17.3224 30.66 16.7653 29.6952 16.5242C28.7305 16.2831 27.7224 16.3692 26.8025 16.7712C25.8826 17.1733 25.0937 17.8727 24.5386 18.7781C23.9835 19.6836 23.6881 20.753 23.6909 21.8469C23.689 22.2655 23.7317 22.6829 23.8181 23.0905C21.8581 22.9831 19.9406 22.4197 18.1908 21.437C16.4411 20.4543 14.8985 19.0744 13.6636 17.3876C13.0337 18.5885 12.8413 20.0099 13.1258 21.3622C13.4103 22.7144 14.1502 23.8959 15.1948 24.6659C14.4098 24.6444 13.6414 24.4107 12.9568 23.985V24.0527C12.9563 25.3119 13.35 26.5325 14.071 27.5071C14.7921 28.4816 15.7959 29.15 16.9121 29.3986C16.4892 29.5255 16.053 29.5898 15.6148 29.5898C15.3042 29.5904 14.9942 29.5567 14.6896 29.4889C15.0043 30.5719 15.6172 31.519 16.4426 32.1977C17.2679 32.8764 18.2645 33.2527 19.2929 33.274C17.5481 34.7909 15.3921 35.6133 13.1728 35.6086C12.7802 35.608 12.3879 35.5819 11.998 35.5303C14.2406 37.1442 16.8598 38.0002 19.5353 37.9935C21.3808 38.0078 23.2105 37.6163 24.9181 36.8416C26.6256 36.0669 28.1769 34.9245 29.4817 33.4809C30.7865 32.0373 31.8189 30.3212 32.5187 28.4324C33.2186 26.5437 33.572 24.5199 33.5585 22.4787C33.5585 22.2424 33.5585 22.0062 33.5429 21.7753C34.5068 21.0026 35.3386 20.0463 35.9993 18.951V18.951Z" fill="white"/>
</g>
<defs>
<clipPath id="clip0_61385_205">
<rect width="24" height="21.6" fill="white" transform="translate(12 16.3925)"/>
</clipPath>
</defs>
</svg>
