<svg width="47" height="54" viewBox="0 0 47 54" fill="none" xmlns="http://www.w3.org/2000/svg">
<rect width="46.6667" height="54" fill="#323238"/>
<g clip-path="url(#clip0_61385_212)">
<path d="M35.5109 21.1621C35.5541 20.0052 35.2131 18.8749 34.5626 18.0193C33.9122 17.1637 33.0053 16.6526 32.0411 16.5982C29.444 16.4522 26.7954 16.3925 24.0903 16.3925H23.2468C20.5468 16.3925 17.8931 16.4491 15.296 16.5982C14.3316 16.6563 13.4256 17.1702 12.7761 18.0276C12.1267 18.885 11.7867 20.0161 11.8306 21.1735C11.714 23.1798 11.6617 25.178 11.6668 27.1812C11.672 29.1845 11.714 31.1857 11.8263 33.1941C11.7806 34.3532 12.1195 35.4868 12.7688 36.3468C13.4181 37.2068 14.325 37.7231 15.2908 37.7827C18.0191 37.9349 20.8186 38.0018 23.6643 37.9967C26.5146 38.0076 29.3057 37.9363 32.0377 37.7827C33.0037 37.7242 33.9109 37.2089 34.561 36.3497C35.2111 35.4906 35.5511 34.3574 35.5066 33.1983C35.6189 31.1898 35.6703 29.1876 35.666 27.1802C35.6751 25.1742 35.6234 23.1682 35.5109 21.1621ZM21.368 32.6985V21.6465L28.166 27.1699L21.368 32.6985Z" fill="white"/>
</g>
<defs>
<clipPath id="clip0_61385_212">
<rect width="24" height="21.6" fill="white" transform="translate(11.6667 16.3925)"/>
</clipPath>
</defs>
</svg>
